<svg version="1.1" viewBox="0.0 0.0 447.68241469816275 728.5538057742782" fill="none" stroke="none" stroke-linecap="square" stroke-miterlimit="10" xmlns:xlink="http://www.w3.org/1999/xlink" xmlns="http://www.w3.org/2000/svg"><clipPath id="p.0"><path d="m0 0l447.6824 0l0 728.55383l-447.6824 0l0 -728.55383z" clip-rule="nonzero"/></clipPath><g clip-path="url(#p.0)"><path fill="#000000" fill-opacity="0.0" d="m0 0l447.6824 0l0 728.55383l-447.6824 0z" fill-rule="evenodd"/><path fill="#660000" d="m454.31055 782.8665c-6.358734 -67.872986 -22.830292 -205.28314 -66.61835 -303.7173c-43.788055 -98.43417 -118.676544 -285.13116 -196.10999 -286.8877c-77.43343 -1.7565613 -307.53433 160.66075 -268.4906 276.3484c39.04373 115.68759 414.2165 365.4012 502.753 417.77737c88.53647 52.3761 34.824646 -35.647766 28.465912 -103.52075z" fill-rule="evenodd"/><path fill="#990000" d="m390.66675 628.3943c-34.52362 -82.99414 -106.8396 -247.0878 -180.17763 -329.70273c-73.33803 -82.614944 -206.94078 -248.22266 -259.8505 -165.98691c-52.909714 82.23573 -135.43985 548.74274 -57.607788 659.40137c77.83206 110.65863 441.66083 31.835693 524.6001 4.550415c82.93933 -27.285278 7.5594482 -85.268005 -26.964203 -168.26215z" fill-rule="evenodd"/></g></svg>