<svg version="1.1" viewBox="0.0 0.0 523.2467191601049 523.2467191601049" fill="none" stroke="none" stroke-linecap="square" stroke-miterlimit="10" xmlns:xlink="http://www.w3.org/1999/xlink" xmlns="http://www.w3.org/2000/svg"><clipPath id="p.0"><path d="m0 0l523.2467 0l0 523.2467l-523.2467 0l0 -523.2467z" clip-rule="nonzero"/></clipPath><g clip-path="url(#p.0)"><path fill="#000000" fill-opacity="0.0" d="m0 0l523.2467 0l0 523.2467l-523.2467 0z" fill-rule="evenodd"/><path fill="#a2c4c9" d="m21.62336 261.62335l0 0c0 -132.54834 107.45165 -240.0 240.0 -240.0l0 0c63.651978 0 124.6969 25.28564 169.70563 70.29437c45.008728 45.008736 70.29437 106.05367 70.29437 169.70563l0 0c0 132.54834 -107.45166 240.0 -240.0 240.0l0 0c-132.54834 0 -240.0 -107.45166 -240.0 -240.0z" fill-rule="evenodd"/><path fill="#ffd489" d="m189.62335 172.521l0 0c0 -38.190277 32.235504 -69.149605 72.0 -69.149605l0 0c19.095581 0 37.40909 7.285385 50.911682 20.253448c13.5026245 12.968071 21.088318 30.556541 21.088318 48.896156l0 0c0 38.190277 -32.235504 69.14961 -72.0 69.14961l0 0c-39.764496 0 -72.0 -30.959335 -72.0 -69.14961z" fill-rule="evenodd"/><path fill="#999999" d="m237.38715 241.67061l48.472443 0l0 0c23.631409 0 46.294952 9.387543 63.004883 26.097458c16.70993 16.70996 26.097473 39.373474 26.097473 63.004913l0 89.102356c0 0.0010375977 -8.544922E-4 0.0018920898 -0.0018920898 0.0018920898l-226.67528 -0.0018920898l0 0c-0.0010375977 0 -0.0018920898 -8.544922E-4 -0.0018920898 -0.0018920898l0.0018920898 -89.100464l0 0c0 -49.2099 39.892487 -89.10237 89.10237 -89.10237z" fill-rule="evenodd"/></g></svg>